# Blender v2.78 (sub 0) OBJ File: 'cave.blend'
# www.blender.org
mtllib cave.mtl
o Cube_Cube.001
v 24.406986 -19.903343 -38.769314
v 24.555733 23.076506 -34.050987
v 24.735247 -23.461330 33.326889
v 22.386562 24.047972 36.059258
v -23.613998 -24.832226 -35.347431
v -26.291695 19.942667 -36.903175
v -25.138943 -22.410816 35.656857
v -26.400587 19.977360 37.227608
v 27.412083 -27.666073 0.012225
v 33.188816 0.841828 -36.304417
v 27.284094 27.796124 0.239679
v 31.210066 -0.186022 39.877697
v 1.394728 -32.489258 37.758770
v -1.650558 31.923115 36.729641
v -33.055218 -2.561371 37.068085
v -26.442738 -28.590145 0.161624
v -26.322922 28.673031 -0.161132
v -33.150902 -0.082742 -36.252567
v 1.258627 -33.724075 -35.137657
v 0.882633 33.120018 -36.462162
v 37.444607 -0.772806 0.192782
v -0.697844 -2.872563 54.851868
v -38.019241 0.320895 -0.548533
v 0.970458 2.509258 -55.730366
v 0.104406 -37.348366 0.043559
v 0.343041 37.329811 0.946630
v -11.663542 -12.012847 51.055916
v 10.849342 8.841153 51.738392
v -12.419149 -2.970056 52.294815
v -0.362869 9.980285 53.973129
v -11.151629 8.101493 52.160316
v 14.004557 -13.215189 49.869247
v 12.352836 -1.959442 52.207130
v 0.606625 -13.324086 52.739624
v 13.105493 -12.251088 -51.156647
v -10.890903 12.631700 -51.194336
v 15.113395 2.223052 -52.526943
v 1.079052 15.364921 -51.960285
v 13.303837 13.583820 -49.942745
v -10.900112 -10.346750 -52.984062
v -13.714684 3.604673 -53.307011
v 0.719107 -13.992596 -53.583126
v 29.798052 -13.040224 35.796097
v 14.300034 -29.837399 34.607525
v -13.528900 28.982670 36.230240
v -30.829008 -13.398832 35.041710
v -20.551615 -5.443898 49.061218
v 28.894051 12.549617 37.799110
v -12.737963 -30.801926 34.110069
v 10.242002 30.769283 34.796410
v -32.716606 8.452310 34.516140
v 4.700337 22.504341 47.128448
v -6.863685 22.282255 47.044228
v 9.668134 -22.678474 46.167580
v -7.005804 -22.533005 47.552147
v 17.441288 4.756555 50.035667
v -20.729342 2.795116 49.360397
v 21.152309 -8.360909 47.091595
v 19.848768 -20.014759 42.432652
v -15.775892 14.764486 48.640495
v 15.024723 16.225321 47.887848
v -16.957556 -20.963203 44.535912
v 30.367527 14.080861 -33.751301
v -31.891335 -11.724710 -33.128925
v -10.847229 -31.215961 -35.760490
v 14.977416 29.666603 -34.027359
v 6.865204 -25.701447 -45.436947
v 30.118776 -11.466475 -36.661377
v -31.734684 10.164736 -35.014656
v 15.465244 -29.027924 -34.769943
v -14.141773 29.275024 -35.676079
v -6.931860 23.157818 -47.004704
v 9.490885 23.462856 -45.927883
v -5.452665 -24.143219 -46.537514
v 21.671093 -8.062834 -47.797150
v -22.831516 9.097018 -46.672161
v 23.790352 10.596282 -45.229683
v -23.684750 -3.796742 -47.708786
v -16.199631 16.827587 -47.531254
v -18.544125 -17.509195 -46.265873
v 19.068434 19.197828 -43.803925
v 17.762634 -18.950832 -45.258717
vn -0.2971 -0.7516 0.5890
vn -0.9819 -0.0136 -0.1890
vn 0.6691 0.0872 -0.7381
vn 0.3329 -0.9391 -0.0858
vn 0.3331 0.9294 0.1590
vn -0.4433 0.6492 0.6181
vn -0.9148 0.3753 0.1495
vn 0.1727 0.6488 -0.7411
vn 0.6558 -0.7289 -0.1967
vn 0.4660 0.8711 0.1549
vn -0.3027 0.9466 -0.1109
vn 0.3295 0.9387 -0.1009
vn 0.2435 0.9693 -0.0345
vn -0.3100 -0.9415 0.1319
vn -0.3119 -0.9440 -0.1075
vn -0.2021 -0.9792 -0.0161
vn 0.4392 -0.6940 -0.5705
vn 0.2178 0.2730 -0.9371
vn 0.6957 0.4717 -0.5418
vn -0.9895 -0.0736 0.1247
vn -0.9161 0.3797 -0.1292
vn -0.9882 0.1261 0.0865
vn 0.3710 0.6857 0.6263
vn -0.2132 0.0722 0.9743
vn -0.6742 0.3191 0.6661
vn 0.9259 -0.3464 0.1506
vn 0.9328 0.3315 0.1416
vn 0.9824 0.1840 0.0326
vn -0.2426 0.9671 0.0771
vn -0.3110 0.9421 0.1250
vn -0.5863 0.7880 -0.1877
vn 0.2051 -0.9786 0.0163
vn 0.3323 -0.9368 0.1093
vn -0.5388 -0.8264 0.1637
vn -0.3610 -0.6865 -0.6312
vn -0.6503 0.3771 -0.6595
vn -0.4168 0.6621 -0.6228
vn -0.9802 -0.1941 -0.0387
vn -0.9250 -0.3681 0.0939
vn -0.9205 -0.3715 -0.1213
vn 0.4003 -0.6986 0.5930
vn 0.5409 0.0739 0.8379
vn -0.3813 0.5573 0.7376
vn 0.9699 -0.2409 -0.0348
vn 0.9300 -0.3461 -0.1238
vn 0.9945 -0.1013 -0.0249
vn 0.8338 0.5340 -0.1398
vn 0.9379 0.3337 -0.0946
vn 0.2969 0.0826 0.9513
vn 0.2019 0.0705 0.9769
vn 0.1941 0.0619 0.9790
vn 0.1922 -0.4326 0.8808
vn 0.2078 -0.1696 0.9634
vn 0.2071 -0.1689 0.9636
vn -0.5453 -0.4156 0.7279
vn -0.1710 0.0315 0.9848
vn -0.2181 0.3889 0.8951
vn -0.2063 -0.2185 0.9538
vn -0.1498 -0.1465 0.9778
vn -0.1653 -0.3768 0.9114
vn -0.1939 -0.4771 -0.8572
vn -0.0626 -0.0357 -0.9974
vn -0.1706 -0.1246 -0.9774
vn 0.6657 -0.0404 -0.7451
vn 0.1927 0.2467 -0.9497
vn 0.2080 0.4361 -0.8755
vn -0.4181 0.3290 -0.8468
vn -0.1211 0.2620 -0.9575
vn -0.1360 0.2799 -0.9504
vn 0.2166 -0.1292 -0.9677
vn 0.2071 -0.1206 -0.9708
vn 0.2329 -0.4701 -0.8514
vn 0.6934 -0.4669 0.5488
vn 0.7007 -0.2847 0.6542
vn 0.5415 -0.3636 0.7580
vn -0.1536 0.3761 0.9138
vn -0.2150 0.7653 0.6067
vn -0.3957 0.6386 0.6600
vn 0.3832 0.2474 0.8899
vn 0.6303 0.2354 0.7398
vn 0.6014 0.4412 0.6661
vn -0.4403 -0.3438 0.8294
vn -0.6984 -0.2676 0.6638
vn -0.6534 -0.3674 0.6619
vn -0.4070 0.2516 -0.8781
vn -0.7737 0.1803 -0.6074
vn -0.6691 0.2364 -0.7046
vn -0.7289 -0.3619 -0.5812
vn -0.7852 -0.2383 -0.5715
vn -0.4817 -0.2684 -0.8342
vn 0.3857 0.4712 -0.7932
vn 0.2871 0.7887 -0.5436
vn 0.4752 0.6926 -0.5428
vn 0.4880 -0.3605 -0.7949
vn 0.7591 -0.1711 -0.6281
vn 0.6538 -0.2657 -0.7085
vn -0.2428 -0.7766 0.5813
vn -0.8823 0.4588 0.1049
vn 0.4213 -0.1432 -0.8956
vn -0.3240 -0.1549 0.9333
vn -0.1520 0.4143 -0.8973
vn 0.3147 -0.9465 -0.0710
vn 0.0898 0.9951 -0.0413
vn 0.5596 0.8139 -0.1565
vn -0.4468 -0.8852 -0.1293
vn 0.2854 -0.8252 -0.4874
vn 0.7963 0.2737 -0.5394
vn -0.8484 -0.5151 -0.1221
vn -0.8773 0.4668 -0.1117
vn 0.1734 0.7803 0.6009
vn -0.7323 0.1750 0.6581
vn 0.8467 0.5047 0.1686
vn -0.5533 0.8116 0.1876
vn -0.2507 0.9655 -0.0696
vn 0.5288 -0.8357 0.1480
vn -0.1137 -0.9933 -0.0188
vn -0.1346 -0.7962 -0.5899
vn -0.4255 -0.1066 -0.8987
vn -0.2313 0.7869 -0.5721
vn -0.8430 -0.5239 0.1222
vn 0.2979 -0.7535 0.5860
vn 0.4307 -0.1225 0.8941
vn 0.2181 0.3987 0.8908
vn 0.8352 -0.5231 -0.1694
vn 0.8797 -0.4578 0.1285
vn 0.9782 0.2075 0.0050
vn 0.5509 -0.1520 0.8206
vn -0.0669 -0.6162 0.7848
vn -0.3039 0.0463 0.9516
vn 0.3450 0.5924 0.7281
vn 0.1954 -0.5990 0.7766
vn 0.2680 -0.6540 -0.7074
vn 0.4572 0.2659 -0.8487
vn -0.0915 0.6543 -0.7507
vn -0.6373 -0.1431 -0.7572
vn -0.3293 -0.6496 -0.6853
vn 0.4895 -0.6955 0.5260
vn 0.6746 -0.3378 0.6563
vn 0.4103 -0.4891 0.7697
vn -0.3804 0.2116 0.9003
vn -0.4182 0.6339 0.6506
vn -0.6703 0.1991 0.7149
vn 0.1649 0.3811 0.9097
vn 0.6122 0.2683 0.7438
vn 0.3142 0.6901 0.6519
vn -0.3233 -0.4248 0.8456
vn -0.6512 -0.3475 0.6746
vn -0.4335 -0.7364 0.5195
vn -0.2499 0.4378 -0.8637
vn -0.6621 0.5067 -0.5521
vn -0.4420 0.6559 -0.6119
vn -0.3637 -0.6867 -0.6294
vn -0.7306 -0.3364 -0.5942
vn -0.2667 -0.4924 -0.8285
vn 0.4675 0.3883 -0.7941
vn 0.4369 0.6992 -0.5659
vn 0.7006 0.4337 -0.5666
vn 0.3181 -0.4922 -0.8103
vn 0.6731 -0.3884 -0.6293
vn 0.4523 -0.6906 -0.5644
usemtl Material.001
s off
f 49//1 55//1 62//1
f 51//2 17//2 15//2
f 75//3 37//3 10//3
f 19//4 9//4 25//4
f 11//5 26//5 14//5
f 47//6 29//6 15//6
f 17//7 23//7 15//7
f 38//8 72//8 20//8
f 9//9 70//9 1//9
f 11//10 50//10 4//10
f 20//11 17//11 26//11
f 26//12 11//12 20//12
f 11//13 66//13 20//13
f 16//14 25//14 13//14
f 25//15 16//15 19//15
f 16//16 65//16 19//16
f 70//17 67//17 82//17
f 24//18 38//18 37//18
f 63//19 77//19 81//19
f 64//20 16//20 18//20
f 23//21 17//21 18//21
f 17//22 69//22 18//22
f 50//23 52//23 61//23
f 22//24 30//24 29//24
f 51//25 57//25 60//25
f 12//26 9//26 21//26
f 21//27 11//27 12//27
f 11//28 48//28 12//28
f 17//29 45//29 14//29
f 14//30 26//30 17//30
f 17//31 71//31 6//31
f 9//32 44//32 13//32
f 13//33 25//33 9//33
f 16//34 49//34 7//34
f 74//35 65//35 80//35
f 41//36 78//36 18//36
f 71//37 72//37 79//37
f 16//38 46//38 15//38
f 15//39 23//39 16//39
f 18//40 16//40 23//40
f 54//41 44//41 59//41
f 33//42 58//42 12//42
f 30//43 52//43 14//43
f 9//44 68//44 10//44
f 10//45 21//45 9//45
f 43//46 9//46 12//46
f 11//47 63//47 2//47
f 21//48 10//48 11//48
f 33//49 56//49 28//49
f 28//50 30//50 33//50
f 30//51 22//51 33//51
f 34//52 54//52 32//52
f 32//53 33//53 34//53
f 33//54 22//54 34//54
f 29//55 57//55 15//55
f 29//56 30//56 31//56
f 30//57 53//57 31//57
f 29//58 34//58 22//58
f 29//59 27//59 34//59
f 55//60 34//60 27//60
f 42//61 74//61 40//61
f 40//62 41//62 42//62
f 41//63 24//63 42//63
f 37//64 77//64 10//64
f 37//65 38//65 39//65
f 38//66 73//66 39//66
f 41//67 76//67 36//67
f 36//68 38//68 41//68
f 38//69 24//69 41//69
f 37//70 42//70 24//70
f 37//71 35//71 42//71
f 67//72 42//72 35//72
f 59//73 3//73 43//73
f 58//74 43//74 12//74
f 32//75 59//75 58//75
f 60//76 31//76 53//76
f 45//77 53//77 14//77
f 8//78 60//78 45//78
f 61//79 28//79 56//79
f 48//80 56//80 12//80
f 4//81 61//81 48//81
f 62//82 27//82 47//82
f 46//83 47//83 15//83
f 7//84 62//84 46//84
f 79//85 36//85 76//85
f 69//86 76//86 18//86
f 6//87 79//87 69//87
f 80//88 5//88 64//88
f 78//89 64//89 18//89
f 40//90 80//90 78//90
f 81//91 39//91 73//91
f 66//92 73//92 20//92
f 2//93 81//93 66//93
f 82//94 35//94 75//94
f 68//95 75//95 10//95
f 1//96 82//96 68//96
f 49//97 13//97 55//97
f 51//98 8//98 17//98
f 75//99 35//99 37//99
f 47//100 27//100 29//100
f 38//101 36//101 72//101
f 9//102 19//102 70//102
f 11//103 14//103 50//103
f 11//104 2//104 66//104
f 16//105 5//105 65//105
f 70//106 19//106 67//106
f 63//107 10//107 77//107
f 64//108 5//108 16//108
f 17//109 6//109 69//109
f 50//110 14//110 52//110
f 51//111 15//111 57//111
f 11//112 4//112 48//112
f 17//113 8//113 45//113
f 17//114 20//114 71//114
f 9//115 3//115 44//115
f 16//116 13//116 49//116
f 74//117 19//117 65//117
f 41//118 40//118 78//118
f 71//119 20//119 72//119
f 16//120 7//120 46//120
f 54//121 13//121 44//121
f 33//122 32//122 58//122
f 30//123 28//123 52//123
f 9//124 1//124 68//124
f 43//125 3//125 9//125
f 11//126 10//126 63//126
f 33//127 12//127 56//127
f 34//128 13//128 54//128
f 29//129 31//129 57//129
f 30//130 14//130 53//130
f 55//131 13//131 34//131
f 42//132 19//132 74//132
f 37//133 39//133 77//133
f 38//134 20//134 73//134
f 41//135 18//135 76//135
f 67//136 19//136 42//136
f 59//137 44//137 3//137
f 58//138 59//138 43//138
f 32//139 54//139 59//139
f 60//140 57//140 31//140
f 45//141 60//141 53//141
f 8//142 51//142 60//142
f 61//143 52//143 28//143
f 48//144 61//144 56//144
f 4//145 50//145 61//145
f 62//146 55//146 27//146
f 46//147 62//147 47//147
f 7//148 49//148 62//148
f 79//149 72//149 36//149
f 69//150 79//150 76//150
f 6//151 71//151 79//151
f 80//152 65//152 5//152
f 78//153 80//153 64//153
f 40//154 74//154 80//154
f 81//155 77//155 39//155
f 66//156 81//156 73//156
f 2//157 63//157 81//157
f 82//158 67//158 35//158
f 68//159 82//159 75//159
f 1//160 70//160 82//160
